<svg xmlns="http://www.w3.org/2000/svg" viewBox="0 0 1280 961" width="512" height="384"><path fill="#B7A57A" d="m633 20.3-6.6 20.2-21.7.3c-11.9.1-21.7.6-21.7 1 0 .5 7.7 6.4 17 13.2 9.4 6.8 17 12.8 17 13.4s-2.9 10-6.4 20.9c-4.1 12.6-5.9 19.6-5.1 19.3s8.8-5.9 17.9-12.5L639.9 84l17.2 12.5c9.4 6.9 17.5 12.5 17.9 12.5.5 0-2-8.6-5.6-19.2-3.5-10.6-6.4-20-6.4-20.9 0-1 6.7-6.5 17-14 9.4-6.8 17-12.7 17-13.1s-9.8-.8-21.7-.8h-21.8L647 20.9c-3.5-11-6.7-20.2-7-20.4s-3.4 8.8-7 19.8M466 35.7c0 1 .7 10.5 1.5 21.1.8 10.7 1.3 19.7 1.1 20.1-.2.3-9.3 4.2-20 8.6-10.8 4.3-19.3 8.2-18.8 8.6.4.3 9.5 2.8 20.2 5.4s19.8 5.1 20.3 5.4c.6.6 3.7 34.2 3.7 40.9 0 3.7 1.2 2.2 12.9-16.7l11-17.8 19.8 4.8c10.9 2.7 20.4 5.1 21.1 5.4 2.6.9.8-1.6-11.9-16.5-7.2-8.5-13.3-16-13.6-16.7-.3-.6 4.5-9.2 10.6-19.1C530 59.4 535 51.1 535 50.7c0-.3-8.2 2.9-18.2 7-10.1 4.2-19.3 7.8-20.4 8-1.7.4-4.7-2.5-15.8-15.6C466.1 33.1 466 33 466 35.7m335.1 12.8c-6.8 7.9-13.2 15.2-14.1 16-1.6 1.5-3.3 1-21.1-6.4-10.6-4.5-19.6-8.1-20-8.1-.5 0 4.1 8.2 10.1 18.2 6.1 10 11 18.5 11 19s-6.3 8.2-14 17.1c-7.6 8.9-13.8 16.2-13.7 16.4.2.1 9.7-2 21.2-4.7 19.5-4.6 21.1-4.8 22.3-3.2.8.9 5.9 9.2 11.4 18.5 5.6 9.2 10.3 16.5 10.6 16.2.3-.2 1.3-10 2.3-21.6s1.9-21.2 2.1-21.3 3.5-.9 7.3-1.8c25.7-5.8 34.5-8.2 33.8-8.9-.4-.4-9.1-4.2-19.3-8.5-10.2-4.2-18.8-7.9-19.2-8.3-.6-.5.9-22 2.6-38.4.3-2.6.2-4.7-.2-4.7s-6.3 6.5-13.1 14.5M310 161.5c-16.9 3.5-32.1 12.3-44.4 25.6-3.1 3.3-26.9 28.2-52.9 55.2C46.7 415.3 0 464 0 464.6c0 .3 15 .4 33.3.2 36.6-.5 40.2-1 52.2-7.8 9.1-5.2 13.5-10 56.8-62 23.6-28.3 43.2-51.6 43.6-51.8.7-.2 7.1 8 7.1 9.1 0 .2-34 42.6-75.5 94.2s-75.3 94-75.1 94.2c.9.9 61.6-3.8 67-5.2 8.4-2.2 19-8.1 25.6-14.1 4-3.7 18.1-23.3 49-67.8 23.9-34.4 44-62.6 44.5-62.6.6 0 2.8 1.7 4.8 3.8l3.7 3.8-74.9 111.9c-41.3 61.6-74.9 112.1-74.7 112.2.7.7 60.7-7.8 65.7-9.3 9.5-2.8 19-8.4 25.9-15.5 5.9-5.9 10.6-13.6 51.9-86 25-43.7 46-80 46.7-80.8 1.2-1.3 10.4 3.1 10.4 5.1 0 .3-32.2 59-71.5 130.5-42.2 76.6-71 129.9-70.2 130.1 2.4.5 61.1-11.9 66.6-14.1 13.3-5.4 24.1-15.4 31-28.6 2.1-4.2 23.3-49.7 47.1-101.1s43.4-93.7 43.6-93.9c.8-.9 10.9 3.8 10.6 4.9-.2.7-21.2 48.6-46.7 106.4s-46.3 105.2-46.1 105.3c.6.7 48.9-9.8 53.8-11.7 12.9-4.8 24.7-15.5 31.1-27.9 1.9-3.6 15.7-40.9 30.8-82.9l27.4-76.3 5 .6c2.7.4 5.4 1 5.8 1.5.5.4-12.7 40.5-29.3 89-16.5 48.6-29.9 88.4-29.8 88.6.5.5 37.1-7.4 41.4-8.9 16.4-5.9 31-20.8 36.2-36.9 1.2-3.5 8.9-32.2 17.2-63.8 8.4-31.6 15.3-57.6 15.5-57.8.8-.9 11.3 3.1 11 4.1-1.8 5-35.5 145-35.1 145.4 1 1 27.8-4.8 34.1-7.3 16.3-6.6 30-22.1 34.8-39.5.9-2.9 4.4-21.9 7.9-42.1 3.4-20.2 6.5-36.4 6.9-36 2.2 2.5 22.9 53.6 22.9 56.4-.1 5.5-2.3 9.2-38.5 63.7l-34.8 52.4-.9 11.1-.9 11.1-21.7 21.7-21.7 21.8H320v45.5l11.3-11.3 11.2-11.2h23L354 786.5 342.5 798l12 12c6.6 6.6 12.3 12 12.7 12 .5 0 .8-5.5.8-12.3v-12.2l11.3-11.3 11.2-11.2h21.7l11.4 11.2 11.4 11.2v20.1l13.6-13.5 13.5-13.5-11.6-11-11.6-11 20.3-20.2 20.3-20.2 7 .9c3.9.5 8 .9 9.2 1 1.3 0 20.1-11.9 44.4-28.1 23.1-15.4 42.2-27.9 42.4-27.7s-4.9 7.3-11.2 15.8C505.7 778.3 427 885 427 885.4c0 1.4 46.6.6 53.5-.9 14.2-3 29.9-13.6 37.4-25.4 1.7-2.7 11.3-22.4 21.2-43.7 9.9-21.4 18.4-39.3 18.8-39.7 1.1-1.1 9.1 2.2 9.1 3.8 0 .6-12.3 32.2-27.4 70.1-15 37.9-27.6 69.9-28 71.2-.7 2.2-.7 2.2 13.6 2.2 22 0 33.1-3.9 46.2-16.1 14.5-13.5 15.7-17.2 26.1-74.5l7.8-43.1 4.5.9c2.5.4 4.6.9 4.8 1.1.1.1-2.7 22.7-6.2 50.2-8.1 63.6-8.1 68.8-.2 85.5 4 8.3 29.9 34.6 32.7 33.1 5.5-3 27-26.1 30.4-32.6 8.5-16.7 8.5-21 .2-85.5-3.5-27.7-6.2-50.6-6-50.9.3-.2 2.4-.7 4.8-1.1l4.3-.6 7.8 43c4.3 23.7 8.7 45.8 9.7 49.1 5.7 18.6 23.1 34.9 42.5 39.9 5.8 1.5 34.4 2.4 34.4 1.1 0-.3-52-131.8-56.6-143-.5-1.3 8.5-5 9.6-3.9.4.5 8.7 18 18.4 38.9s19.1 40.4 20.9 43.3c7.5 12.6 23.3 23.5 38.4 26.7 6.6 1.4 53.3 2.3 53.3 1 0-.5-142.3-193.1-152.9-206.9-2.5-3.3-3.8-5.6-3-5.1.7.5 19.6 13 41.8 27.8 45.9 30.6 43.1 29.1 53.7 27.8l7.9-1 20.2 20.1 20.2 20.1-11.5 11.1-11.5 11.1 13.5 13.5 13.6 13.5v-20l11.3-11.3 11.2-11.2h22l11.3 11.3 11.2 11.2v12.3c0 6.7.3 12.2.8 12.2.4 0 6.1-5.4 12.7-12l12-12-11.5-11.5-11.5-11.5h23l11.2 11.2 11.3 11.3V752H858.5l-21.8-21.8-21.7-21.7-.9-11.3-.9-11.3-35.1-52.7c-35.7-53.8-38.1-57.7-38.1-63.4 0-2.7 20.8-53.5 22.9-56 .4-.4 3 13.3 6 30.5 7.5 44.2 8.6 49.1 12.4 57.1 6.5 13.6 18.1 24.7 31.2 30 6.2 2.5 33.1 8.3 34.1 7.4.4-.4-33.2-139.7-35.1-145.5-.3-1 10.2-5 11-4.1.1.2 7.3 26.9 15.9 59.4s16.3 61.1 17.1 63.5c5.3 14.9 19.5 29.4 34.4 35 7.6 2.8 43.3 10 42.8 8.5-4.3-12-59.7-175.6-59.7-176.4 0-.9 10.8-2.8 11.5-2 .1.2 12.3 33.8 27 74.8 29.8 82.9 31 86 38.3 94.6 11 13.3 20.2 17.5 53.5 24.3 23.4 4.8 23.9 4.9 23.4 2.8-.2-1.2-20.9-48.6-46-105.2-25.1-56.7-45.7-103.6-45.9-104.4-.3-1.4 9.7-6 10.6-5 .2.2 20.5 44 45.2 97.4 47.7 103.4 49.3 106.6 58.6 114.9 10.7 9.7 16.6 11.9 52 19.2 17.2 3.6 31.8 6.3 32.5 6.2.7-.2-28.7-54.6-70.3-130.2-39.2-71.4-71.4-130.1-71.4-130.5 0-1.9 9.2-6.3 10.4-5 .7.8 21.7 37.1 46.7 80.8 60.6 106.1 53.1 98.9 113.3 107.1 16.5 2.2 30.1 3.9 30.2 3.7.2-.2-6.6-10.6-15-23.3-8.5-12.6-42.2-62.9-75-111.9l-59.6-88.9 3.7-3.8c2-2.1 4.2-3.8 4.8-3.8.5 0 20.6 28.2 44.5 62.6 30.9 44.5 45 64.1 49 67.8 6.6 6.1 17 11.8 25.5 14 5.7 1.4 66.2 6.2 67.1 5.3.3-.2-32.1-40.9-71.9-90.3-39.7-49.4-73.8-91.8-75.6-94.1l-3.3-4.2 3.3-4.6c1.8-2.5 3.6-4.4 4-4.3.5.2 20.4 23.8 44.3 52.5 59.9 71.8 54.5 68.4 108.4 69.1 18.2.2 33.2.1 33.2-.3 0-.3-42.2-44.6-93.8-98.3s-111.9-116.6-134-139.7c-51.7-54.1-57.2-58.6-78.2-64.2-11.2-3.1-84.9-2.7-90.7.5-15.1 8-16.6 12.4-17.4 48.7-.4 21.3-1 30.9-2.2 36.2-11.2 49.4-49.3 85.8-98.2 93.9-14 2.3-36.1 1.6-42.7-1.4-9.3-4.1-8.8-2.4-17.4-66.8-8.3-63.3-8.7-64.9-14.7-72.8-22.1-29.1-83.3-34.3-114.2-9.6-2.2 1.7-9.1 5.6-15.4 8.6-17.5 8.3-22.5 13-24.1 22.6-.9 5.9.6 17.6 3.2 23.8l1.5 3.5 1.6-3.2c8.4-16.1 47.3-15.9 50.2.1.7 3.6-20.3 80.8-23.3 86-4.2 7.1-11.7 9.6-31.7 10.3-59 2.3-109-36.6-122.2-95-1.2-5.3-1.8-14.9-2.2-36.2-.8-36.5-2.7-41.8-18-48.9-5.9-2.7-74.3-3.6-86.1-1.1"/></svg>